<svg width="44" height="46" viewBox="0 0 44 46" fill="none" xmlns="http://www.w3.org/2000/svg">
<path d="M21.6834 0C15.8763 0 15.1514 0.02875 12.8712 0.138C10.5947 0.253 9.04497 0.63825 7.68226 1.2075C6.27681 1.794 5.08333 2.58175 3.89518 3.86016C2.70705 5.13859 1.97315 6.42084 1.42985 7.935C0.900795 9.40125 0.54097 11.0688 0.435872 13.5183C0.328993 15.9716 0.307617 16.7516 0.307617 23C0.307617 29.2484 0.334337 30.0284 0.435872 32.4818C0.542751 34.9294 0.900795 36.5987 1.42985 38.065C1.97493 39.5754 2.70705 40.8614 3.89518 42.1399C5.08333 43.4164 6.27503 44.2079 7.68226 44.7925C9.04675 45.3599 10.5965 45.7489 12.8712 45.862C15.1514 45.977 15.8763 46 21.6834 46C27.4905 46 28.2154 45.9712 30.4956 45.862C32.7704 45.747 34.3218 45.3599 35.6845 44.7925C37.0883 44.206 38.2834 43.4164 39.4717 42.1399C40.658 40.8614 41.3936 39.5811 41.937 38.065C42.4643 36.5987 42.8258 34.9294 42.9309 32.4818C43.0378 30.0284 43.0592 29.2484 43.0592 23C43.0592 16.7516 43.0325 15.9716 42.9309 13.5183C42.8241 11.0707 42.4643 9.39934 41.937 7.935C41.3919 6.42275 40.658 5.13859 39.4717 3.86016C38.2834 2.58175 37.0936 1.79209 35.6845 1.2075C34.3218 0.63825 32.7704 0.251084 30.4956 0.138C28.2154 0.023 27.4905 0 21.6834 0ZM21.6834 4.14C27.389 4.14 28.0694 4.17066 30.3228 4.27609C32.407 4.3815 33.538 4.75334 34.2898 5.0715C35.2908 5.48741 35.9998 5.98575 36.7516 6.78884C37.4979 7.59384 37.9611 8.35859 38.3476 9.43575C38.6397 10.2446 38.9888 11.4617 39.0833 13.7042C39.1848 16.1306 39.2079 16.859 39.2079 23C39.2079 29.141 39.1812 29.8712 39.0762 32.2959C38.9675 34.5384 38.6201 35.7554 38.3262 36.5643C37.9273 37.6414 37.473 38.4042 36.7249 39.2131C35.9785 40.0161 35.257 40.5145 34.2667 40.9304C33.5185 41.2448 32.3696 41.6204 30.2854 41.722C28.016 41.8313 27.348 41.8561 21.63 41.8561C15.9102 41.8561 15.2422 41.8274 12.9745 41.7144C10.8886 41.5974 9.73968 41.2236 8.99153 40.9074C7.97796 40.4781 7.28147 39.9894 6.53509 39.1844C5.78516 38.3812 5.30598 37.605 4.93191 36.5394C4.63799 35.7344 4.29242 34.4981 4.18376 32.2556C4.1036 29.8406 4.0751 29.095 4.0751 22.9712C4.0751 16.8456 4.1036 16.0981 4.18376 13.6543C4.29242 11.4118 4.63799 10.1775 4.93191 9.3725C5.30598 8.28 5.78516 7.5325 6.53509 6.72559C7.28147 5.9225 7.97796 5.405 8.99153 5.00441C9.73968 4.68625 10.8637 4.3125 12.9478 4.1975C15.219 4.11125 15.887 4.0825 21.6032 4.0825L21.6834 4.14ZM21.6834 11.1895C15.618 11.1895 10.7069 16.4795 10.7069 23C10.7069 29.5262 15.6234 34.8105 21.6834 34.8105C27.7488 34.8105 32.6599 29.5205 32.6599 23C32.6599 16.4738 27.7434 11.1895 21.6834 11.1895ZM21.6834 30.6666C17.7467 30.6666 14.5582 27.2359 14.5582 23C14.5582 18.7641 17.7467 15.3334 21.6834 15.3334C25.6202 15.3334 28.8086 18.7641 28.8086 23C28.8086 27.2359 25.6202 30.6666 21.6834 30.6666ZM35.6596 10.7238C35.6596 12.2475 34.5089 13.4838 33.0945 13.4838C31.6783 13.4838 30.5294 12.2456 30.5294 10.7238C30.5294 9.20191 31.6802 7.96566 33.0945 7.96566C34.5071 7.96375 35.6596 9.20191 35.6596 10.7238Z" fill="#283051"/>
</svg>
