<svg width="10" height="10" viewBox="0 0 10 10" fill="none" xmlns="http://www.w3.org/2000/svg">
<path d="M0.9375 10C0.679688 10 0.458984 9.87755 0.275391 9.63264C0.0917969 9.38773 0 9.09329 0 8.74931V1.24514C0 0.901157 0.0917969 0.607639 0.275391 0.364583C0.458984 0.121528 0.679688 0 0.9375 0H9.0625C9.32031 0 9.54101 0.122453 9.72461 0.367361C9.9082 0.612268 10 0.906713 10 1.25069V8.75486C10 9.09884 9.9082 9.39236 9.72461 9.63542C9.54101 9.87847 9.32031 10 9.0625 10H0.9375ZM5 5.83333L0.9375 2.72569V8.75H9.0625V2.72569L5 5.83333ZM5 4.35764L9.0625 1.25H0.9375L5 4.35764ZM0.9375 2.72569V1.25V8.75V2.72569Z" fill="#00030F"/>
</svg>
