<svg width="10" height="10" viewBox="0 0 10 10" fill="none" xmlns="http://www.w3.org/2000/svg">
<path d="M5 5C4.30556 5 3.71528 4.75694 3.22917 4.27083C2.74306 3.78472 2.5 3.19444 2.5 2.5C2.5 1.80556 2.74306 1.21528 3.22917 0.729167C3.71528 0.243056 4.30556 0 5 0C5.69444 0 6.28472 0.243056 6.77083 0.729167C7.25694 1.21528 7.5 1.80556 7.5 2.5C7.5 3.19444 7.25694 3.78472 6.77083 4.27083C6.28472 4.75694 5.69444 5 5 5ZM0 10V8.33333C0 8.06713 0.072338 7.81539 0.217014 7.57813C0.36169 7.34086 0.561343 7.1412 0.815972 6.97917C1.45255 6.6088 2.12552 6.32523 2.8349 6.12847C3.54427 5.93171 4.26476 5.83333 4.99635 5.83333C5.72795 5.83333 6.44965 5.93171 7.16146 6.12847C7.87326 6.32523 8.54745 6.6088 9.18403 6.97917C9.43866 7.12963 9.63831 7.32639 9.78299 7.56944C9.92766 7.8125 10 8.06713 10 8.33333V10H0ZM1.25 8.75H8.75V8.33333C8.75 8.27338 8.73246 8.21892 8.6974 8.16997C8.66244 8.12089 8.61632 8.08276 8.55903 8.05556C8.02662 7.73148 7.45949 7.48843 6.85764 7.32639C6.25579 7.16435 5.63657 7.08333 5 7.08333C4.36343 7.08333 3.74421 7.16435 3.14236 7.32639C2.54051 7.48843 1.97338 7.73148 1.44097 8.05556C1.3831 8.10185 1.33681 8.14653 1.30208 8.18958C1.26736 8.23275 1.25 8.28067 1.25 8.33333V8.75ZM5.00365 3.75C5.34844 3.75 5.64236 3.62726 5.88542 3.38177C6.12847 3.13628 6.25 2.84115 6.25 2.49635C6.25 2.15156 6.12726 1.85764 5.88177 1.61458C5.63628 1.37153 5.34115 1.25 4.99635 1.25C4.65156 1.25 4.35764 1.37274 4.11458 1.61823C3.87153 1.86372 3.75 2.15885 3.75 2.50365C3.75 2.84844 3.87274 3.14236 4.11823 3.38542C4.36372 3.62847 4.65885 3.75 5.00365 3.75Z" fill="#00030F"/>
</svg>
