<svg width="10" height="10" viewBox="0 0 10 10" fill="none" xmlns="http://www.w3.org/2000/svg">
<path d="M9.2116 9.99634C8.01164 9.90696 6.87366 9.61149 5.79767 9.10993C4.72167 8.60837 3.75724 7.93053 2.90438 7.0764C2.05152 6.22226 1.37964 5.25888 0.888746 4.18625C0.397854 3.11361 0.102823 1.97643 0.00365268 0.774679C-0.0161813 0.566112 0.0447586 0.384857 0.186473 0.230914C0.328088 0.0769713 0.505156 0 0.717677 0H2.74075C2.90934 0 3.05561 0.0521419 3.17958 0.156426C3.30354 0.260709 3.38535 0.392306 3.42502 0.551214L3.78203 2.13037C3.80187 2.25948 3.79443 2.38363 3.75972 2.50281C3.72501 2.62199 3.66799 2.72131 3.58865 2.80076L2.14573 4.26074C2.34407 4.63814 2.57216 5.00065 2.83 5.34827C3.08784 5.69588 3.37529 6.02353 3.69233 6.33122C3.99014 6.62937 4.30764 6.90507 4.64481 7.15833C4.98199 7.41159 5.339 7.63754 5.71585 7.83618L7.18853 6.406C7.26786 6.32655 7.36703 6.26944 7.48604 6.23468C7.60504 6.19992 7.729 6.19247 7.85793 6.21233L9.44961 6.55498C9.6182 6.60464 9.75208 6.69154 9.85124 6.81569C9.95041 6.93984 10 7.08633 10 7.25517V9.28125C10 9.49409 9.92066 9.67142 9.76199 9.81325C9.60332 9.95518 9.41986 10.0162 9.2116 9.99634ZM1.65484 3.2179L2.69612 2.17506L2.44086 1.07263H1.10444C1.15403 1.45004 1.22345 1.81503 1.3127 2.16761C1.40195 2.52019 1.516 2.87029 1.65484 3.2179ZM6.77201 8.3427C7.1201 8.48413 7.47488 8.59646 7.83636 8.67968C8.19783 8.76291 8.56203 8.82936 8.92896 8.87902V7.53823L7.8133 7.29986L6.77201 8.3427Z" fill="#00030F"/>
</svg>
